<?xml version="1.0" encoding="UTF-8"?>
<svg version="1.1" xmlns="http://www.w3.org/2000/svg" width="72" height="72">
<path d="M0 0 C9.2885078 6.04644574 16.30704248 13.66242586 19.23828125 24.45703125 C20.46037108 35.51909764 20.10526593 45.98365476 13.25 55.1015625 C7.15310061 62.29358717 -0.02143748 68.60191805 -9.76831055 69.67871094 C-22.17165 70.3332112 -31.31823533 69.47747693 -41.07421875 61.20703125 C-47.77198818 54.80366927 -52.59619898 47.78820009 -53.09765625 38.28515625 C-53.36515737 24.97083003 -51.61687307 16.57635933 -42.1328125 6.65625 C-31.30988012 -3.38215351 -13.59314718 -6.64397349 0 0 Z " fill="#1A3D2B" transform="translate(52.76171875,2.54296875)"/>
<path d="M0 0 C1.32 0.33 2.64 0.66 4 1 C2.35 2.32 0.7 3.64 -1 5 C0.216875 5.20625 1.43375 5.4125 2.6875 5.625 C6.06445121 6.49472989 7.21406475 7.18284697 10 9.5625 C12.5368719 13.92274859 12.9592865 17.07155562 12 22 C9.24137931 27.51724138 9.24137931 27.51724138 5.75 28.875 C5.1725 28.91625 4.595 28.9575 4 29 C4 29.99 4 30.98 4 32 C5.32 32.33 6.64 32.66 8 33 C8 33.99 8 34.98 8 36 C6.02 36 4.04 36 2 36 C2 34.02 2 32.04 2 30 C1.34 30 0.68 30 0 30 C0 31.98 0 33.96 0 36 C-3.375 36.1875 -3.375 36.1875 -7 36 C-7.66 35.01 -8.32 34.02 -9 33 C-9.99 33 -10.98 33 -12 33 C-11.01 33.66 -10.02 34.32 -9 35 C-11.89234315 35.82638376 -13.88742431 36 -17 36 C-17.86625 36.04125 -18.7325 36.0825 -19.625 36.125 C-22 36 -22 36 -24 34 C-24.125 31.375 -24.125 31.375 -24 29 C-25.5778125 28.938125 -25.5778125 28.938125 -27.1875 28.875 C-31.05207389 27.98804862 -32.77702511 27.10384569 -35.11328125 23.875 C-36.83366011 20.23719449 -36.81158677 16.89145451 -36 13 C-33.86828929 8.49972184 -33.86828929 8.49972184 -31 7 C-25.28968235 6.2067018 -19.89643413 5.73571058 -15 9 C-15.33 7.35 -15.66 5.7 -16 4 C-17.32 3.67 -18.64 3.34 -20 3 C-20 2.67 -20 2.34 -20 2 C-17.36 2 -14.72 2 -12 2 C-12 2.66 -12 3.32 -12 4 C-9.03 4.495 -9.03 4.495 -6 5 C-6 5.33 -6 5.66 -6 6 C-8.64 6 -11.28 6 -14 6 C-13.34 8.64 -12.68 11.28 -12 14 C-10.82739389 12.71372289 -9.6620717 11.42080217 -8.5 10.125 C-7.8503125 9.40570313 -7.200625 8.68640625 -6.53125 7.9453125 C-4.79382728 6.15068902 -4.79382728 6.15068902 -5 4 C-4.360625 3.71125 -3.72125 3.4225 -3.0625 3.125 C-0.84793921 2.17176549 -0.84793921 2.17176549 0 0 Z " fill="#53C77D" transform="translate(48,19)"/>
<path d="M0 0 C0.66 0 1.32 0 2 0 C4.00147698 5.02771018 4.38394753 9.41839024 4.375 14.75 C4.37693359 15.93891846 4.37693359 15.93891846 4.37890625 17.15185547 C4.26409883 23.53019066 2.94845745 28.2873637 0 34 C-3.96 34 -7.92 34 -12 34 C-12 33.34 -12 32.68 -12 32 C-13.32 31.67 -14.64 31.34 -16 31 C-16 29.68 -16 28.36 -16 27 C-15.01 26.34 -14.02 25.68 -13 25 C-9.77984301 21.96385199 -8.70526739 19.77762876 -8.5625 15.4375 C-8.71768036 11.69454961 -9.41700264 9.79824714 -12 7 C-12 6.01 -12 5.02 -12 4 C-11.30132812 3.87882812 -10.60265625 3.75765625 -9.8828125 3.6328125 C-8.51769531 3.38144531 -8.51769531 3.38144531 -7.125 3.125 C-5.76761719 2.88136719 -5.76761719 2.88136719 -4.3828125 2.6328125 C-1.83494012 2.16955297 -1.83494012 2.16955297 0 0 Z " fill="#1A3D2B" transform="translate(68,21)"/>
<path d="M0 0 C0.66 0.33 1.32 0.66 2 1 C2 1.66 2 2.32 2 3 C2.66 3 3.32 3 4 3 C6.3846661 6.36658744 6.17690008 9.19866284 5.5234375 13.09765625 C4.67881081 16.16730697 3.70509032 17.30931855 1 19 C-3.32360895 20.16373774 -6.74839651 20.50596737 -10.9375 18.8125 C-14.0297082 16.09510492 -14.78470365 14.21104196 -15.5 10.1875 C-14.79274363 5.67874064 -12.37969171 2.98498319 -9 0 C-5.49142603 -1.16952466 -3.57280503 -0.76017128 0 0 Z " fill="#2C864F" transform="translate(53,27)"/>
<path d="M0 0 C0.66 0 1.32 0 2 0 C2 1.32 2 2.64 2 4 C5.96 4 9.92 4 14 4 C14.33 2.68 14.66 1.36 15 0 C18 1 18 1 19 3 C19.35294118 9.47058824 19.35294118 9.47058824 17 13 C16.34 13 15.68 13 15 13 C14.34 14.32 13.68 15.64 13 17 C11.741875 17.04125 10.48375 17.0825 9.1875 17.125 C8.47980469 17.14820312 7.77210937 17.17140625 7.04296875 17.1953125 C5 17 5 17 2 15 C2 14.34 2 13.68 2 13 C1.01 12.67 0.02 12.34 -1 12 C-2.24834144 9.50331711 -1.95155125 8.18670849 -1.625 5.4375 C-1.53476563 4.63183594 -1.44453125 3.82617188 -1.3515625 2.99609375 C-1 1 -1 1 0 0 Z " fill="#2D9454" transform="translate(15,30)"/>
<path d="M0 0 C2.3125 1.875 2.3125 1.875 4 4 C4.66 4.66 5.32 5.32 6 6 C6.66 6 7.32 6 8 6 C8 6.99 8 7.98 8 9 C7.01 9 6.02 9 5 9 C5.04125 9.763125 5.0825 10.52625 5.125 11.3125 C5 14 5 14 3 17 C-2.69817264 16.02062658 -6.9343623 11.63942595 -10.40625 7.203125 C-11.31947288 5.83329068 -12.16830531 4.42081175 -13 3 C-8.48653233 0.35797014 -5.23611111 -0.67875514 0 0 Z " fill="#19492E" transform="translate(17,51)"/>
<path d="M0 0 C2.64 0 5.28 0 8 0 C8 0.66 8 1.32 8 2 C10.97 2.495 10.97 2.495 14 3 C14 3.33 14 3.66 14 4 C11.36 4 8.72 4 6 4 C6.33 4.66 6.66 5.32 7 6 C7.039992 7.99960012 7.04346799 10.00047242 7 12 C6.34 12 5.68 12 5 12 C4.67 11.34 4.34 10.68 4 10 C3.34 10 2.68 10 2 10 C1.67 10.99 1.34 11.98 1 13 C-7.57142857 14.28571429 -7.57142857 14.28571429 -11 13 C-11.79953138 9.71303767 -12.09658936 8.28976808 -11 5 C-8.89611431 4.94597726 -6.79183286 4.90719744 -4.6875 4.875 C-2.92986328 4.84019531 -2.92986328 4.84019531 -1.13671875 4.8046875 C2 5 2 5 5 7 C4.67 5.35 4.34 3.7 4 2 C2.68 1.67 1.36 1.34 0 1 C0 0.67 0 0.34 0 0 Z " fill="#2AA959" transform="translate(28,21)"/>
<path d="M0 0 C0.66 0 1.32 0 2 0 C2.45375 0.94875 2.9075 1.8975 3.375 2.875 C4.80238254 6.00313679 4.80238254 6.00313679 7 8 C5.6875 10.5 5.6875 10.5 4 13 C3.01 13 2.02 13 1 13 C1.99 13.66 2.98 14.32 4 15 C0.64683258 16.11772247 -1.59612776 15.85096806 -5 15 C-6.1446875 14.7215625 -6.1446875 14.7215625 -7.3125 14.4375 C-7.869375 14.293125 -8.42625 14.14875 -9 14 C-9 12.35 -9 10.7 -9 9 C-8.01 9 -7.02 9 -6 9 C-3.2650899 6.06973918 -1.27424305 3.82272915 0 0 Z " fill="#1F412F" transform="translate(35,39)"/>
<path d="M0 0 C1.23556641 0.01740234 1.23556641 0.01740234 2.49609375 0.03515625 C3.32238281 0.04417969 4.14867187 0.05320313 5 0.0625 C5.63808594 0.07410156 6.27617188 0.08570313 6.93359375 0.09765625 C6.60359375 1.74765625 6.27359375 3.39765625 5.93359375 5.09765625 C4.94359375 5.42765625 3.95359375 5.75765625 2.93359375 6.09765625 C1.72477279 8.09782091 1.72477279 8.09782091 0.93359375 10.09765625 C-0.38640625 10.09765625 -1.70640625 10.09765625 -3.06640625 10.09765625 C-3.09329841 8.61858733 -3.11275246 7.13938142 -3.12890625 5.66015625 C-3.14050781 4.83644531 -3.15210937 4.01273438 -3.1640625 3.1640625 C-3.03158405 0.36081842 -2.80324408 0.13247845 0 0 Z " fill="#1E4B32" transform="translate(27.06640625,36.90234375)"/>
<path d="M0 0 C2.05078125 0.03255208 4.1015625 0.06510417 6.15234375 0.09765625 C6.51350784 3.34813306 6.46163579 4.68526686 4.46484375 7.34765625 C1.95171513 9.24948331 0.25331156 9.75310427 -2.84765625 10.09765625 C-2.87454841 8.61858733 -2.89400246 7.13938142 -2.91015625 5.66015625 C-2.92175781 4.83644531 -2.93335938 4.01273438 -2.9453125 3.1640625 C-2.8198894 0.51010975 -2.66068535 0.14062819 0 0 Z " fill="#1E4A32" transform="translate(51.84765625,36.90234375)"/>
<path d="M0 0 C1.98 0.66 3.96 1.32 6 2 C6 2.66 6 3.32 6 4 C6.66 4 7.32 4 8 4 C8.33 5.98 8.66 7.96 9 10 C2.84765625 10.09765625 2.84765625 10.09765625 1 10 C0 9 0 9 -0.09765625 6.93359375 C-0.08605469 6.10988281 -0.07445312 5.28617188 -0.0625 4.4375 C-0.05347656 3.61121094 -0.04445312 2.78492188 -0.03515625 1.93359375 C-0.02355469 1.29550781 -0.01195312 0.65742188 0 0 Z " fill="#1D4731" transform="translate(49,26)"/>
<path d="M0 0 C1.69141656 0.08963062 3.37959602 0.24577676 5.0625 0.4375 C6.44115234 0.59025391 6.44115234 0.59025391 7.84765625 0.74609375 C8.55792969 0.82988281 9.26820312 0.91367187 10 1 C10 3.31 10 5.62 10 8 C9.67 8 9.34 8 9 8 C9 6.02 9 4.04 9 2 C8.34 2 7.68 2 7 2 C7 3.98 7 5.96 7 8 C4.66705225 8.04241723 2.33297433 8.04092937 0 8 C-1 7 -1 7 -1.125 4 C-1 1 -1 1 0 0 Z " fill="#638973" transform="translate(41,47)"/>
<path d="M0 0 C2.3125 0.1875 2.3125 0.1875 4 1 C3.175 1.721875 2.35 2.44375 1.5 3.1875 C-1.24407806 5.72917366 -1.24407806 5.72917366 -1.3125 8.8125 C-1.1578125 9.8953125 -1.1578125 9.8953125 -1 11 C-1.33 10.01 -1.66 9.02 -2 8 C-2.391875 8.391875 -2.78375 8.78375 -3.1875 9.1875 C-4.64598214 10.64598214 -6.13138933 12.07751364 -7.625 13.5 C-10.1812626 15.83688754 -10.1812626 15.83688754 -11 19 C-11.66 19 -12.32 19 -13 19 C-13.3125 16.8125 -13.3125 16.8125 -13 14 C-10.6875 11.4375 -10.6875 11.4375 -8 9 C-7.505 8.34 -7.01 7.68 -6.5 7 C-4.52152039 4.36202718 -2.51099154 2.14352936 0 0 Z " fill="#2DB760" transform="translate(48,19)"/>
<path d="M0 0 C0.33 1.65 0.66 3.3 1 5 C0.01 4.67 -0.98 4.34 -2 4 C-4.39490986 3.93029948 -6.79167691 3.91551997 -9.1875 3.9375 C-10.45980469 3.94652344 -11.73210938 3.95554687 -13.04296875 3.96484375 C-14.01878906 3.97644531 -14.99460937 3.98804688 -16 4 C-15.67 2.68 -15.34 1.36 -15 0 C-13.25093341 -0.19601608 -11.50068154 -0.38147403 -9.75 -0.5625 C-8.77546875 -0.66691406 -7.8009375 -0.77132813 -6.796875 -0.87890625 C-4.2368648 -0.98974468 -2.41851841 -0.77738092 0 0 Z " fill="#1F7240" transform="translate(32,23)"/>
<path d="M0 0 C0.66 0 1.32 0 2 0 C2.33 2.97 2.66 5.94 3 9 C0.03 9 -2.94 9 -6 9 C-4.24686304 5.49372608 -2.58369151 2.90665295 0 0 Z " fill="#1C442F" transform="translate(44,27)"/>
<path d="M0 0 C0 4.30269952 -2.2009571 5.8677377 -5 9 C-5.66 9.66 -6.32 10.32 -7 11 C-9 4.25 -9 4.25 -9 2 C-5.86501708 0.14223235 -3.62528568 -0.20140476 0 0 Z " fill="#1C5234" transform="translate(43,23)"/>
<path d="M0 0 C2.64 0 5.28 0 8 0 C8 0.66 8 1.32 8 2 C10.97 2.495 10.97 2.495 14 3 C14 3.33 14 3.66 14 4 C11.36 4 8.72 4 6 4 C6.33 4.66 6.66 5.32 7 6 C7.039992 7.99960012 7.04346799 10.00047242 7 12 C6.34 12 5.68 12 5 12 C4.34 10.35 3.68 8.7 3 7 C3.66 7 4.32 7 5 7 C4.67 5.35 4.34 3.7 4 2 C2.68 1.67 1.36 1.34 0 1 C0 0.67 0 0.34 0 0 Z " fill="#33B764" transform="translate(28,21)"/>
<path d="M0 0 C0.99 0.33 1.98 0.66 3 1 C3 3.64 3 6.28 3 9 C2.401875 8.67 1.80375 8.34 1.1875 8 C-1.05386471 6.79212012 -1.05386471 6.79212012 -4 7 C-4 5.35 -4 3.7 -4 2 C-3.01 2 -2.02 2 -1 2 C-0.67 1.34 -0.34 0.68 0 0 Z " fill="#597465" transform="translate(30,46)"/>
<path d="M0 0 C2.97 0 5.94 0 9 0 C7.35 1.98 5.7 3.96 4 6 C3.01 5.67 2.02 5.34 1 5 C0.67 3.35 0.34 1.7 0 0 Z " fill="#1A3D2C" transform="translate(38,37)"/>
<path d="M0 0 C1.98 0.66 3.96 1.32 6 2 C5.34 3.98 4.68 5.96 4 8 C2.68 8 1.36 8 0 8 C-1.125 2.25 -1.125 2.25 0 0 Z " fill="#349158" transform="translate(64,47)"/>
<path d="M0 0 C2.64 0 5.28 0 8 0 C8 1.65 8 3.3 8 5 C6.68 5 5.36 5 4 5 C1.75 2.5 1.75 2.5 0 0 Z " fill="#1A3C2B" transform="translate(50,37)"/>
<path d="M0 0 C2.64 0 5.28 0 8 0 C6.35 1.98 4.7 3.96 3 6 C2.01 5.67 1.02 5.34 0 5 C0 3.35 0 1.7 0 0 Z " fill="#1A3C2B" transform="translate(14,37)"/>
<path d="M0 0 C0.99 0.33 1.98 0.66 3 1 C3.33 2.65 3.66 4.3 4 6 C1.03 6 -1.94 6 -5 6 C-4.67 5.34 -4.34 4.68 -4 4 C-3.01 4 -2.02 4 -1 4 C-0.67 2.68 -0.34 1.36 0 0 Z " fill="#1C442F" transform="translate(30,30)"/>
<path d="M0 0 C0 2.64 0 5.28 0 8 C-1.65 7.67 -3.3 7.34 -5 7 C-5.33 6.01 -5.66 5.02 -6 4 C-1.125 0 -1.125 0 0 0 Z " fill="#1B3F2C" transform="translate(23,39)"/>
<path d="M0 0 C0 2.64 0 5.28 0 8 C-1.65 7.67 -3.3 7.34 -5 7 C-5 4 -5 4 -3.0625 1.8125 C-1 0 -1 0 0 0 Z " fill="#1B3D2B" transform="translate(48,39)"/>
<path d="M0 0 C0.66 0 1.32 0 2 0 C2 1.32 2 2.64 2 4 C3.65 4.33 5.3 4.66 7 5 C7 5.33 7 5.66 7 6 C4.03 6 1.06 6 -2 6 C-1.34 4.02 -0.68 2.04 0 0 Z " fill="#1D442F" transform="translate(15,30)"/>
<path d="M0 0 C1.98 0.495 1.98 0.495 4 1 C4 2.65 4 4.3 4 6 C2.35 5.67 0.7 5.34 -1 5 C-0.67 3.35 -0.34 1.7 0 0 Z " fill="#AABDB2" transform="translate(44,49)"/>
<path d="M0 0 C1.32 0 2.64 0 4 0 C4 1.65 4 3.3 4 5 C2.68 5.33 1.36 5.66 0 6 C-1 3 -1 3 0 0 Z " fill="#3BAB65" transform="translate(58,49)"/>
<path d="M0 0 C2.64 0 5.28 0 8 0 C7.34 1.65 6.68 3.3 6 5 C5.34 5 4.68 5 4 5 C4 4.34 4 3.68 4 3 C3.34 3 2.68 3 2 3 C2 2.34 2 1.68 2 1 C1.34 0.67 0.68 0.34 0 0 Z " fill="#1B3E2C" transform="translate(26,38)"/>
<path d="M0 0 C0.99 0.33 1.98 0.66 3 1 C3 2.32 3 3.64 3 5 C0.69 5 -1.62 5 -4 5 C-2.68 3.35 -1.36 1.7 0 0 Z " fill="#1A3A2A" transform="translate(55,31)"/>
<path d="M0 0 C2.0625 0.4375 2.0625 0.4375 4 1 C4 1.66 4 2.32 4 3 C3.01 3 2.02 3 1 3 C1.99 3.66 2.98 4.32 4 5 C2.68 5.33 1.36 5.66 0 6 C-0.38218767 4.34385343 -0.71395102 2.67542976 -1 1 C-0.67 0.67 -0.34 0.34 0 0 Z " fill="#B1C3B8" transform="translate(35,49)"/>
<path d="M0 0 C0.66 0 1.32 0 2 0 C1.1875 2.4375 1.1875 2.4375 0 5 C-0.99 5.33 -1.98 5.66 -3 6 C-3.33 6.99 -3.66 7.98 -4 9 C-4.33 8.01 -4.66 7.02 -5 6 C-2.6875 2.8125 -2.6875 2.8125 0 0 Z " fill="#4BB673" transform="translate(33,40)"/>
<path d="M0 0 C1.98 0.495 1.98 0.495 4 1 C3.34 2.32 2.68 3.64 2 5 C1.01 4.67 0.02 4.34 -1 4 C-0.67 2.68 -0.34 1.36 0 0 Z " fill="#32B864" transform="translate(10,51)"/>
</svg>
